<svg width="121" height="124" viewBox="0 0 121 124" fill="none" xmlns="http://www.w3.org/2000/svg">
<rect y="3" width="121" height="121" rx="20" fill="#0E60FF"/>
<g filter="url(#filter0_d_244_1835)">
<path d="M50.178 33C52.656 33 54.6915 33.2065 56.2845 33.6195C57.9365 34.0325 59.323 34.475 60.444 34.947L58.143 45.3015C57.199 44.8885 56.137 44.5935 54.957 44.4165C53.836 44.2395 52.6855 44.151 51.5055 44.151C49.9125 44.151 48.5555 44.387 47.4345 44.859C46.3725 45.272 45.517 45.862 44.868 46.629C44.278 47.396 43.8355 48.3105 43.5405 49.3725C43.3045 50.4345 43.1865 51.585 43.1865 52.824V55.125H59.4705V66.099H43.1865V101.676H30V52.647C30 46.629 31.6815 41.85 35.0445 38.31C38.4665 34.77 43.511 33 50.178 33ZM80.268 101.676H67.0815V55.125H80.268V101.676ZM81.507 41.673C81.507 44.092 80.7105 46.0095 79.1175 47.4255C77.5835 48.7825 75.7545 49.461 73.6305 49.461C71.5065 49.461 69.648 48.7825 68.055 47.4255C66.521 46.0095 65.754 44.092 65.754 41.673C65.754 39.254 66.521 37.366 68.055 36.009C69.648 34.593 71.5065 33.885 73.6305 33.885C75.7545 33.885 77.5835 34.593 79.1175 36.009C80.7105 37.366 81.507 39.254 81.507 41.673Z" fill="white"/>
</g>
<g filter="url(#filter1_d_244_1835)">
<path fill-rule="evenodd" clip-rule="evenodd" d="M78.6044 13.6508C78.7577 12.8735 79.5121 12.3678 80.2893 12.5211C87.9596 14.0343 93.4274 16.9237 97.7553 22.4822C102.509 28.5872 103.709 36.1566 103.125 41.9258C103.046 42.714 102.342 43.2883 101.554 43.2086C100.766 43.1289 100.191 42.4253 100.271 41.6371C100.798 36.4225 99.6917 29.639 95.4917 24.2447C91.6856 19.3563 86.9008 16.7495 79.7341 15.3357C78.9568 15.1824 78.4511 14.428 78.6044 13.6508Z" fill="white"/>
</g>
<g filter="url(#filter2_d_244_1835)">
<path fill-rule="evenodd" clip-rule="evenodd" d="M77.5178 21.5012C77.5701 20.8696 78.1246 20.4 78.7562 20.4524C83.6225 20.8557 87.9344 22.9429 91.1154 26.6989C94.2754 30.43 95.8716 35.3648 94.9842 40.0869C94.8671 40.7098 94.2673 41.1198 93.6444 41.0027C93.0216 40.8857 92.6115 40.2859 92.7286 39.663C93.4695 35.7207 92.148 31.4692 89.3641 28.1822C86.6013 24.9201 82.8657 23.0959 78.5666 22.7396C77.935 22.6873 77.4654 22.1328 77.5178 21.5012Z" fill="white"/>
</g>
<g filter="url(#filter3_d_244_1835)">
<path fill-rule="evenodd" clip-rule="evenodd" d="M77.4657 28.1046C77.5244 27.6329 77.9544 27.2981 78.4261 27.3568C81.1555 27.6965 84.1537 28.861 85.9518 31.2207C87.6741 33.481 88.6365 36.5552 87.8058 39.4322C87.6739 39.8888 87.1968 40.1521 86.7402 40.0203C86.2835 39.8884 86.0202 39.4113 86.152 38.9546C86.792 36.7383 86.0722 34.2188 84.5827 32.264C83.169 30.4087 80.6876 29.3729 78.2135 29.0649C77.7418 29.0062 77.407 28.5762 77.4657 28.1046Z" fill="white"/>
</g>
<defs>
<filter id="filter0_d_244_1835" x="26.0667" y="33" width="59.3737" height="76.5427" filterUnits="userSpaceOnUse" color-interpolation-filters="sRGB">
<feFlood flood-opacity="0" result="BackgroundImageFix"/>
<feColorMatrix in="SourceAlpha" type="matrix" values="0 0 0 0 0 0 0 0 0 0 0 0 0 0 0 0 0 0 127 0" result="hardAlpha"/>
<feOffset dy="3.93333"/>
<feGaussianBlur stdDeviation="1.96667"/>
<feComposite in2="hardAlpha" operator="out"/>
<feColorMatrix type="matrix" values="0 0 0 0 0 0 0 0 0 0 0 0 0 0 0 0 0 0 0.25 0"/>
<feBlend mode="normal" in2="BackgroundImageFix" result="effect1_dropShadow_244_1835"/>
<feBlend mode="normal" in="SourceGraphic" in2="effect1_dropShadow_244_1835" result="shape"/>
</filter>
<filter id="filter1_d_244_1835" x="75.5769" y="10.4937" width="30.6846" height="36.7222" filterUnits="userSpaceOnUse" color-interpolation-filters="sRGB">
<feFlood flood-opacity="0" result="BackgroundImageFix"/>
<feColorMatrix in="SourceAlpha" type="matrix" values="0 0 0 0 0 0 0 0 0 0 0 0 0 0 0 0 0 0 127 0" result="hardAlpha"/>
<feOffset dy="1"/>
<feGaussianBlur stdDeviation="1.5"/>
<feComposite in2="hardAlpha" operator="out"/>
<feColorMatrix type="matrix" values="0 0 0 0 0 0 0 0 0 0.270782 0 0 0 0 0.795833 0 0 0 1 0"/>
<feBlend mode="normal" in2="BackgroundImageFix" result="effect1_dropShadow_244_1835"/>
<feBlend mode="normal" in="SourceGraphic" in2="effect1_dropShadow_244_1835" result="shape"/>
</filter>
<filter id="filter2_d_244_1835" x="73.5137" y="20.4484" width="25.7139" height="28.5743" filterUnits="userSpaceOnUse" color-interpolation-filters="sRGB">
<feFlood flood-opacity="0" result="BackgroundImageFix"/>
<feColorMatrix in="SourceAlpha" type="matrix" values="0 0 0 0 0 0 0 0 0 0 0 0 0 0 0 0 0 0 127 0" result="hardAlpha"/>
<feOffset dy="4"/>
<feGaussianBlur stdDeviation="2"/>
<feComposite in2="hardAlpha" operator="out"/>
<feColorMatrix type="matrix" values="0 0 0 0 0.0420486 0 0 0 0 0.273005 0 0 0 0 0.720833 0 0 0 1 0"/>
<feBlend mode="normal" in2="BackgroundImageFix" result="effect1_dropShadow_244_1835"/>
<feBlend mode="normal" in="SourceGraphic" in2="effect1_dropShadow_244_1835" result="shape"/>
</filter>
<filter id="filter3_d_244_1835" x="73.459" y="27.3501" width="18.6499" height="20.7042" filterUnits="userSpaceOnUse" color-interpolation-filters="sRGB">
<feFlood flood-opacity="0" result="BackgroundImageFix"/>
<feColorMatrix in="SourceAlpha" type="matrix" values="0 0 0 0 0 0 0 0 0 0 0 0 0 0 0 0 0 0 127 0" result="hardAlpha"/>
<feOffset dy="4"/>
<feGaussianBlur stdDeviation="2"/>
<feComposite in2="hardAlpha" operator="out"/>
<feColorMatrix type="matrix" values="0 0 0 0 0.0420486 0 0 0 0 0.273005 0 0 0 0 0.720833 0 0 0 1 0"/>
<feBlend mode="normal" in2="BackgroundImageFix" result="effect1_dropShadow_244_1835"/>
<feBlend mode="normal" in="SourceGraphic" in2="effect1_dropShadow_244_1835" result="shape"/>
</filter>
</defs>
</svg>
