<svg width="19" height="19" viewBox="0 0 19 19" fill="none" xmlns="http://www.w3.org/2000/svg">
<g clip-path="url(#clip0_156_1899)">
<path d="M13.1377 10.3909C12.9738 10.3917 12.8416 10.5247 12.8416 10.6886C12.8416 10.8525 12.9746 10.9855 13.1385 10.9847C13.3024 10.9847 13.4354 10.8517 13.4354 10.6878C13.4354 10.5239 13.3024 10.3909 13.1377 10.3909" stroke="white" stroke-width="1.1875" stroke-linecap="round" stroke-linejoin="round"/>
<path d="M2.375 3.95801V14.6455C2.375 15.5203 3.08354 16.2288 3.95833 16.2288H15.0417C15.9165 16.2288 16.625 15.5203 16.625 14.6455V6.72884C16.625 5.85405 15.9165 5.14551 15.0417 5.14551H3.5625C2.907 5.14551 2.375 4.61351 2.375 3.95801V3.95801C2.375 3.30251 2.907 2.77051 3.5625 2.77051H13.4583" stroke="white" stroke-width="1.1875" stroke-linecap="round" stroke-linejoin="round"/>
</g>
<defs>
<clipPath id="clip0_156_1899">
<rect width="19" height="19" fill="white"/>
</clipPath>
</defs>
</svg>
