<svg width="8" height="14" viewBox="0 0 8 14" fill="none" xmlns="http://www.w3.org/2000/svg">
<path d="M0.696488 2.59297C0.51767 2.41268 0.417334 2.16903 0.417334 1.9151C0.417334 1.66117 0.51767 1.41752 0.696488 1.23722C0.784181 1.14817 0.888711 1.07745 1.00399 1.02918C1.11928 0.980913 1.24301 0.956055 1.36799 0.956055C1.49297 0.956055 1.6167 0.980913 1.73198 1.02918C1.84726 1.07745 1.95179 1.14817 2.03949 1.23722L7.35199 6.65597C7.53036 6.83672 7.63037 7.08044 7.63037 7.33438C7.63037 7.58832 7.53036 7.83204 7.35199 8.01279L2.03949 13.4315C1.95179 13.5206 1.84726 13.5913 1.73198 13.6396C1.6167 13.6878 1.49297 13.7127 1.36799 13.7127C1.24301 13.7127 1.11928 13.6878 1.00399 13.6396C0.888711 13.5913 0.784181 13.5206 0.696488 13.4315C0.518116 13.2508 0.418104 13.0071 0.418104 12.7531C0.418104 12.4992 0.518116 12.2555 0.696488 12.0747L5.04955 7.33172L0.696488 2.59297Z" fill="white"/>
</svg>
